# xmcd
# 
# Track frame offsets:
#     150
#     22000
#     35647
#     55785
#     74765
#     97525
#     114037
#     133672
#     152880
#     173147
#     191107
#     211427
#     230777
#     248907
#     263452
# 
# Disc length: 3785
# 
# Revision: 12
# Processed by: cddbd v1.5.2PL0 Copyright (c) Steve Scherf et al.
# Submitted via: fre:ac v1.0.17
# 
DISCID=d00ec70f
DTITLE=Sting - The Very Best of Sting and The Police
DYEAR=1997
DGENRE=Rock
TTITLE0=Message in a Bottle
TTITLE1=Can't Stand Losing You
TTITLE2=Englishman in New York
TTITLE3=Every Breath You Take
TTITLE4=Walking on the Moon
TTITLE5=Fields of Gold
TTITLE6=Every Little Thing She Does Is Magic
TTITLE7=If You Love Somebody Set Them Free
TTITLE8=Let Your Soul Be Your Pilot [Edit]
TTITLE9=Russians
TTITLE10=If I Ever Lose My Faith in You
TTITLE11=When We Dance [Edit]
TTITLE12=Don't Stand So Close to Me
TTITLE13=Roxanne
TTITLE14=Roxanne '97 [Puff Daddy Remix]
EXTD=
EXTT0=
EXTT1=
EXTT2=
EXTT3=
EXTT4=
EXTT5=
EXTT6=
EXTT7=
EXTT8=
EXTT9=
EXTT10=
EXTT11=
EXTT12=
EXTT13=
EXTT14=
PLAYORDER=
